# xmcd
#
# Track frame offsets:
#	150
#	14847
#	26870
#	41782
#	56445
#	71370
#	84152
#	95840
#	134757
#	150980
#	174322
#	189607
#	218412
#	234607
#	248415
#	262672
#
# Disc length: 3687 seconds
#
# Revision: 1
# Processed by: cddbd v1.5.2PL0 Copyright (c) Steve Scherf et al.
# Submitted via: EZCDAudioConverter 2.1.7.1
#
DISCID=d00e6510
DTITLE=V/A - Trojan Roots 2/3
DYEAR=1900
DGENRE=
TTITLE0=Prince Far I - Under Heavy Manners
TTITLE1=Peter Tosh - Arise Black Man
TTITLE2=The Abbyssinians - Yim Mas Gan
TTITLE3=The Heptones - Babylon Falling
TTITLE4=The Ethiopians - Hail Brother Rasta Hail
TTITLE5=Johnny Clarke - Enter Into His Gates With Praise
TTITLE6=Jay Boys - African People
TTITLE7=Lee Perry - City Too Hot
TTITLE8=Dennis Brown - Africa
TTITLE9=George Boswell - Jah Fire
TTITLE10=Big Youth - Dread In Babylon
TTITLE11=Mighty Diamonds - Talk About It
TTITLE12=Sugar Minott - Free Jah Jah Children
TTITLE13=Neville Grant - Black Man's Time
TTITLE14=Ashanti Waugh - Babylon Wrong
TTITLE15=Ras Michael and The Sons Of Negus - Keep Cool Babylon
EXTD=
EXTT0=
EXTT1=
EXTT2=
EXTT3=
EXTT4=
EXTT5=
EXTT6=
EXTT7=
EXTT8=
EXTT9=
EXTT10=
EXTT11=
EXTT12=
EXTT13=
EXTT14=
EXTT15=
PLAYORDER=
